<mxfile host="app.diagrams.net" modified="2024-04-20T10:14:56.785Z" agent="Mozilla/5.0 (Windows NT 10.0; Win64; x64) AppleWebKit/537.36 (KHTML, like Gecko) Chrome/124.0.0.0 Safari/537.36" etag="7arelsc89WpY6M3FjbAI" version="24.2.7" type="github">
  <diagram name="第 1 页" id="0oYE38ctvLdI-eBOiRC1">
    <mxGraphModel dx="826" dy="459" grid="1" gridSize="10" guides="1" tooltips="1" connect="1" arrows="1" fold="1" page="1" pageScale="1" pageWidth="827" pageHeight="1169" math="0" shadow="0">
      <root>
        <mxCell id="0" />
        <mxCell id="1" parent="0" />
        <mxCell id="2XvVjahBwO5Qx6K5A-zi-1" value="Actor" style="shape=umlActor;verticalLabelPosition=bottom;verticalAlign=top;html=1;outlineConnect=0;" vertex="1" parent="1">
          <mxGeometry x="150" y="165" width="60" height="120" as="geometry" />
        </mxCell>
        <mxCell id="2XvVjahBwO5Qx6K5A-zi-2" value="员工管理" style="ellipse;whiteSpace=wrap;html=1;" vertex="1" parent="1">
          <mxGeometry x="270" y="200" width="110" height="50" as="geometry" />
        </mxCell>
        <mxCell id="2XvVjahBwO5Qx6K5A-zi-9" value="" style="group" vertex="1" connectable="0" parent="1">
          <mxGeometry x="440" y="70" width="110" height="310" as="geometry" />
        </mxCell>
        <mxCell id="2XvVjahBwO5Qx6K5A-zi-4" value="删除员工信息" style="ellipse;whiteSpace=wrap;html=1;" vertex="1" parent="2XvVjahBwO5Qx6K5A-zi-9">
          <mxGeometry y="65" width="110" height="50" as="geometry" />
        </mxCell>
        <mxCell id="2XvVjahBwO5Qx6K5A-zi-5" value="添加员工信息" style="ellipse;whiteSpace=wrap;html=1;" vertex="1" parent="2XvVjahBwO5Qx6K5A-zi-9">
          <mxGeometry width="110" height="50" as="geometry" />
        </mxCell>
        <mxCell id="2XvVjahBwO5Qx6K5A-zi-6" value="查询员工信息" style="ellipse;whiteSpace=wrap;html=1;" vertex="1" parent="2XvVjahBwO5Qx6K5A-zi-9">
          <mxGeometry y="195" width="110" height="50" as="geometry" />
        </mxCell>
        <mxCell id="2XvVjahBwO5Qx6K5A-zi-7" value="修改员工信息" style="ellipse;whiteSpace=wrap;html=1;" vertex="1" parent="2XvVjahBwO5Qx6K5A-zi-9">
          <mxGeometry y="130" width="110" height="50" as="geometry" />
        </mxCell>
        <mxCell id="2XvVjahBwO5Qx6K5A-zi-8" value="禁用员工权限" style="ellipse;whiteSpace=wrap;html=1;" vertex="1" parent="2XvVjahBwO5Qx6K5A-zi-9">
          <mxGeometry y="260" width="110" height="50" as="geometry" />
        </mxCell>
        <mxCell id="2XvVjahBwO5Qx6K5A-zi-20" value="&amp;lt;&amp;lt;include&amp;gt;&amp;gt;" style="html=1;verticalAlign=bottom;labelBackgroundColor=none;endArrow=open;endFill=0;dashed=1;rounded=0;strokeColor=default;align=center;fontFamily=Helvetica;fontSize=11;fontColor=default;entryX=0;entryY=0.5;entryDx=0;entryDy=0;exitX=1;exitY=0.5;exitDx=0;exitDy=0;" edge="1" parent="1" source="2XvVjahBwO5Qx6K5A-zi-2" target="2XvVjahBwO5Qx6K5A-zi-5">
          <mxGeometry width="160" relative="1" as="geometry">
            <mxPoint x="290" y="190" as="sourcePoint" />
            <mxPoint x="450" y="190" as="targetPoint" />
          </mxGeometry>
        </mxCell>
        <mxCell id="2XvVjahBwO5Qx6K5A-zi-23" value="&amp;lt;&amp;lt;include&amp;gt;&amp;gt;" style="html=1;verticalAlign=bottom;labelBackgroundColor=none;endArrow=open;endFill=0;dashed=1;rounded=0;strokeColor=default;align=center;fontFamily=Helvetica;fontSize=11;fontColor=default;exitX=1;exitY=0.5;exitDx=0;exitDy=0;entryX=0;entryY=0.5;entryDx=0;entryDy=0;" edge="1" parent="1" source="2XvVjahBwO5Qx6K5A-zi-2" target="2XvVjahBwO5Qx6K5A-zi-6">
          <mxGeometry width="160" relative="1" as="geometry">
            <mxPoint x="340" y="290" as="sourcePoint" />
            <mxPoint x="500" y="290" as="targetPoint" />
          </mxGeometry>
        </mxCell>
        <mxCell id="2XvVjahBwO5Qx6K5A-zi-24" value="&amp;lt;&amp;lt;include&amp;gt;&amp;gt;" style="html=1;verticalAlign=bottom;labelBackgroundColor=none;endArrow=open;endFill=0;dashed=1;rounded=0;strokeColor=default;align=center;fontFamily=Helvetica;fontSize=11;fontColor=default;entryX=0;entryY=0.5;entryDx=0;entryDy=0;exitX=1;exitY=0.5;exitDx=0;exitDy=0;" edge="1" parent="1" source="2XvVjahBwO5Qx6K5A-zi-2" target="2XvVjahBwO5Qx6K5A-zi-8">
          <mxGeometry width="160" relative="1" as="geometry">
            <mxPoint x="360" y="310" as="sourcePoint" />
            <mxPoint x="530" y="230" as="targetPoint" />
          </mxGeometry>
        </mxCell>
        <mxCell id="2XvVjahBwO5Qx6K5A-zi-25" value="&amp;lt;&amp;lt;include&amp;gt;&amp;gt;" style="html=1;verticalAlign=bottom;labelBackgroundColor=none;endArrow=open;endFill=0;dashed=1;rounded=0;strokeColor=default;align=center;fontFamily=Helvetica;fontSize=11;fontColor=default;entryX=0;entryY=0.5;entryDx=0;entryDy=0;exitX=1;exitY=0.5;exitDx=0;exitDy=0;" edge="1" parent="1" source="2XvVjahBwO5Qx6K5A-zi-2" target="2XvVjahBwO5Qx6K5A-zi-4">
          <mxGeometry width="160" relative="1" as="geometry">
            <mxPoint x="440" y="220" as="sourcePoint" />
            <mxPoint x="530" y="230" as="targetPoint" />
          </mxGeometry>
        </mxCell>
        <mxCell id="2XvVjahBwO5Qx6K5A-zi-26" value="&amp;lt;&amp;lt;include&amp;gt;&amp;gt;" style="html=1;verticalAlign=bottom;labelBackgroundColor=none;endArrow=open;endFill=0;dashed=1;rounded=0;strokeColor=default;align=center;fontFamily=Helvetica;fontSize=11;fontColor=default;entryX=0;entryY=0.5;entryDx=0;entryDy=0;exitX=1;exitY=0.5;exitDx=0;exitDy=0;" edge="1" parent="1" source="2XvVjahBwO5Qx6K5A-zi-2" target="2XvVjahBwO5Qx6K5A-zi-7">
          <mxGeometry width="160" relative="1" as="geometry">
            <mxPoint x="710" y="320" as="sourcePoint" />
            <mxPoint x="530" y="230" as="targetPoint" />
          </mxGeometry>
        </mxCell>
        <mxCell id="2XvVjahBwO5Qx6K5A-zi-27" value="&amp;lt;&amp;lt;include&amp;gt;&amp;gt;" style="html=1;verticalAlign=bottom;labelBackgroundColor=none;endArrow=open;endFill=0;dashed=1;rounded=0;strokeColor=default;align=center;fontFamily=Helvetica;fontSize=11;fontColor=default;exitX=0.5;exitY=0.5;exitDx=0;exitDy=0;exitPerimeter=0;entryX=0;entryY=0.5;entryDx=0;entryDy=0;" edge="1" parent="1" source="2XvVjahBwO5Qx6K5A-zi-1" target="2XvVjahBwO5Qx6K5A-zi-2">
          <mxGeometry width="160" relative="1" as="geometry">
            <mxPoint x="370" y="230" as="sourcePoint" />
            <mxPoint x="280" y="225" as="targetPoint" />
          </mxGeometry>
        </mxCell>
      </root>
    </mxGraphModel>
  </diagram>
</mxfile>
